<?xml version="1.0" encoding="UTF-8"?>
<svg id="_レイヤー_1" data-name="レイヤー 1" xmlns="http://www.w3.org/2000/svg" version="1.1" viewBox="0 0 1348.355 195.954">
  <defs>
    <style>
      .cls-1 {
        fill: #e83818;
      }

      .cls-1, .cls-2 {
        stroke-width: 0px;
      }

      .cls-2 {
        fill: #231815;
      }
    </style>
  </defs>
  <rect class="cls-1" x="908.249" y="115.88" width="363.053" height="12.609"/>
  <path class="cls-2" d="M771.276,53.198h-2.71l-.035-1.897c0-1.17-.942-2.118-2.111-2.118h-40.444c-1.17,0-2.111.949-2.111,2.118v32.5c0,1.17.941,2.032,2.111,2.032h40.444c1.17,0,2.111-.863,2.111-2.032l.035-.564h2.71l-.021.514c0,2.66-2.147,4.814-4.793,4.814h-40.452c-2.653,0-4.8-2.154-4.8-4.814v-32.414c0-2.653,2.147-4.807,4.8-4.807h40.452c2.646,0,4.793,2.154,4.793,4.807l.021,1.861"/>
  <path class="cls-2" d="M770.02,96.695c5.306,0,9.343-4.315,9.343-9.628v-3.83l-2.674.029-.021,3.609c0,3.93-3.174,7.146-7.096,7.146l-46.678.014c-3.915,0-7.096-3.188-7.096-7.125l-.029-37.364c0-3.929,3.181-7.117,7.103-7.117l46.742.071c3.923,0,7.096,3.024,7.096,6.961v3.716l2.689.021-.036-3.887c0-5.313-4.3-9.464-9.599-9.464l-47.07-.1c-5.299,0-9.599,4.308-9.599,9.621v37.613c0,5.32,4.122,9.714,9.421,9.714h47.505"/>
  <polyline class="cls-2" points="580.849 84.992 560.202 39.933 545.14 39.933 545.14 96.959 547.85 96.959 547.85 42.65 558.512 42.65 580.342 90.17 581.655 90.212 603.492 42.686 614.154 42.686 614.154 96.916 616.858 96.916 616.858 39.976 601.795 39.976 581.148 85.035 580.849 84.992"/>
  <polyline class="cls-2" points="606.987 46.68 585.071 94.199 577.112 94.199 555.367 46.68 552.7 46.722 552.7 96.959 555.388 96.959 555.367 53.041 575.507 96.916 586.761 96.916 606.816 53.719 606.859 96.959 609.547 96.959 609.547 46.722 606.987 46.68"/>
  <path class="cls-2" d="M635.529,42.543v54.337h-2.624v-56.991l56.52-.021c5.185,0,9.628,4.13,9.628,9.328v15.783c0,5.192-5.192,9.407-10.37,9.407l-45.209.014v22.479h-2.625v-25.132l47.434.021c3.83,0,8.266-3.038,8.266-6.882v-15.39c0-3.844-3.359-7.039-7.196-7.039l-53.824.085"/>
  <path class="cls-2" d="M688.546,61.714c0,1.141-.92,2.069-2.061,2.069h-43.012v-13.272l43.012-.014c1.141,0,2.061.927,2.061,2.069v9.15M686.443,47.757l-45.594.1v18.579l45.594-.014c2.589,0,4.686-2.111,4.686-4.707v-9.257c0-2.596-2.097-4.7-4.686-4.7Z"/>
  <path class="cls-2" d="M795.139,96.767h66.062v-9.956l-56.135.014.007-10.904c0-1.583,1.284-2.867,2.867-2.867l43.354-.007c5.484,0,9.927-4.457,9.927-9.956v-13.757c0-5.499-4.443-9.956-9.927-9.956l-56.156-.007v9.949l53.296.007c1.583,0,2.86,1.291,2.86,2.874v8.023c0,1.583-1.276,2.867-2.86,2.867l-43.361.007c-5.477,0-9.927,4.457-9.927,9.956l-.007,23.728"/>
  <polyline class="cls-2" points="1212.586 90.148 1212.586 40.789 1215.224 40.789 1215.224 87.524 1215.324 87.495 1269.804 87.495 1269.804 90.148 1212.5 90.148 1212.586 90.148"/>
  <polyline class="cls-2" points="1204.598 96.816 1269.833 96.816 1269.833 94.171 1207.344 94.171 1207.237 94.278 1207.237 40.789 1204.598 40.789 1204.598 96.866 1204.598 96.816"/>
  <polyline class="cls-2" points="1156.28 65.108 1128.83 39.505 1132.909 39.505 1156.03 61.272 1156.551 61.378 1179.843 39.527 1183.83 39.527 1156.301 65.215 1156.28 65.108"/>
  <polyline class="cls-2" points="1152.15 68.467 1121.462 96.909 1117.882 96.909 1148.242 68.553 1148.257 68.489 1117.226 39.548 1121.141 39.548 1152.165 68.567 1152.15 68.467"/>
  <polyline class="cls-2" points="1162.82 68.446 1193.266 96.888 1189.357 96.888 1158.911 68.36 1158.926 68.674 1190.113 39.569 1193.943 39.569 1162.827 68.589 1162.82 68.446"/>
  <polyline class="cls-2" points="1156.544 75.664 1179.252 96.931 1183.324 96.931 1156.287 71.827 1156.273 71.926 1129.486 96.952 1133.48 96.952 1156.023 75.763 1156.544 75.664"/>
  <path class="cls-2" d="M933.061,81.105c0,3.166-2.567,5.741-5.727,5.741h-40.095c-3.159,0-5.727-2.575-5.727-5.741v-26.038c0-3.174,2.568-5.741,5.727-5.741h40.095c3.159,0,5.727,2.568,5.727,5.741v26.038M933.061,39.37h-51.549c-5.477,0-9.927,4.457-9.927,9.949v37.528c0,5.499,4.45,9.956,9.927,9.956h51.549c5.484,0,9.927-4.457,9.927-9.956v-37.528c0-5.492-4.443-9.949-9.927-9.949Z"/>
  <path class="cls-2" d="M1014.92,81.105c0,3.166-2.56,5.741-5.727,5.741h-40.088c-3.167,0-5.734-2.575-5.734-5.741v-26.038c0-3.174,2.568-5.741,5.734-5.741h40.088c3.167,0,5.727,2.568,5.727,5.741v26.038M1014.92,39.37h-51.549c-5.477,0-9.927,4.457-9.927,9.949v37.528c0,5.499,4.45,9.956,9.927,9.956h51.549c5.484,0,9.928-4.457,9.928-9.956v-37.528c0-5.492-4.443-9.949-9.928-9.949Z"/>
  <path class="cls-2" d="M1096.801,81.105c0,3.166-2.568,5.741-5.727,5.741h-40.095c-3.159,0-5.727-2.575-5.727-5.741v-26.038c0-3.174,2.567-5.741,5.727-5.741h40.095c3.159,0,5.727,2.568,5.727,5.741v26.038M1096.801,39.37h-51.549c-5.484,0-9.927,4.457-9.927,9.949v37.528c0,5.499,4.443,9.956,9.927,9.956h51.549c5.484,0,9.927-4.457,9.927-9.956v-37.528c0-5.492-4.443-9.949-9.927-9.949Z"/>
  <rect class="cls-2" x="545.118" y="115.916" width="363.053" height="12.609"/>
  <path class="cls-1" d="M65.318,105.924h26.58l6.961-11.889h48.233l7.396,11.889h26.473l-42.655-67.225h-30.981l-42.007,67.225M122.765,54.29l15.433,25.261h-30.438l15.005-25.261Z"/>
  <polyline class="cls-1" points="189.426 38.699 213.218 38.699 213.218 63.397 224.365 63.397 254.376 38.699 286.747 38.699 244.733 71.57 291.682 105.924 258.02 105.924 223.723 80.114 213.218 80.114 213.218 105.924 189.426 105.924 189.426 38.699"/>
  <path class="cls-1" d="M299.392,105.924h26.58l6.961-11.889h48.239l7.389,11.889h26.481l-42.663-67.225h-30.974l-42.013,67.225M356.831,54.29l15.44,25.261h-30.439l14.998-25.261Z"/>
  <g>
    <polygon class="cls-1" points="444.821 79.517 439.077 77.504 439.077 81.53 444.821 79.517"/>
    <path class="cls-1" d="M433.321,66.812h6.822v-6.046h-6.822v-3.173h15.269v-4.746c-.279.261-.581.506-.925.721-.869.544-1.917.921-3.144,1.129v-3.289c.555-.123,1.03-.314,1.424-.573.394-.259.695-.571.903-.938.208-.367.313-.778.313-1.234,0-.595-.121-1.1-.365-1.517-.243-.417-.598-.735-1.065-.955s-1.029-.33-1.685-.33h-4.621c-.656,0-1.216.11-1.679.33-.463.22-.817.538-1.06.955-.243.417-.365.923-.365,1.517,0,.463.102.88.307,1.251s.504.683.898.938c.394.255.872.44,1.436.556v3.289c-1.227-.216-2.275-.596-3.144-1.141s-1.531-1.231-1.987-2.061-.683-1.774-.683-2.832c0-1.282.245-2.378.735-3.289.49-.911,1.204-1.606,2.143-2.085.938-.479,2.071-.718,3.399-.718h4.621c1.328,0,2.461.239,3.399.718.43.219.808.49,1.145.801v-5.392h-23.799v67.225h23.799v-3.974h-15.257v-3.903l12.14-5.965h-12.14v-3.034h15.257v-7.923l-15.269,5.839v-3.417l2.698-.946v-6.169l-2.698-.946v-3.417l15.269,5.839v-7.923h-15.269v-3.173Z"/>
    <rect class="cls-1" x="443.2" y="60.766" width="5.39" height="6.046"/>
    <polygon class="cls-1" points="448.589 98.916 448.589 93.691 437.83 98.916 448.589 98.916"/>
  </g>
  <g>
    <path class="cls-1" d="M201.892,114.422c-.261,3.26-3.239,11.65-8.933,25.169l-.587,1.336c2.369-2.543,4.944-4.629,7.727-6.259,2.782-1.631,5.184-2.445,7.205-2.445,1.999,0,3,1.054,3,3.162,0,2.391-1.087,5.173-3.26,8.347-2.174,3.173-4.945,6.042-8.314,8.607-6.129,4.608-12.052,6.912-17.769,6.912l.457-1.043c4.064-9.433,7.591-17.953,10.58-25.561,2.988-7.607,4.483-11.867,4.483-12.78,0-.652-.391-.978-1.174-.978-.479,0-1.25.196-2.315.587l-.358-1.011c2.825-1.021,5.911-2.368,9.259-4.042ZM185.851,155.99c.587.087,1.032.131,1.337.131,4.803,0,9.096-2.424,12.878-7.271,1.521-1.956,2.788-4.042,3.798-6.26,1.011-2.217,1.516-4.01,1.516-5.379,0-1.521-.717-2.282-2.152-2.282-2.478,0-5.467,2.125-8.966,6.374-3.5,4.25-6.303,9.145-8.412,14.687Z"/>
    <path class="cls-1" d="M229.115,154.262l.587.847c-2.282,1.717-5.401,3.065-9.357,4.043.108-2.195,1.402-5.977,3.88-11.346-2.804,3.304-5.689,6.042-8.656,8.216-2.967,2.173-5.32,3.261-7.059,3.261-1.522,0-2.282-.967-2.282-2.902,0-3.281,1.467-6.83,4.401-10.644s6.618-6.949,11.052-9.406c4.999-2.804,9.976-4.205,14.932-4.205.695,0,1.043.261,1.043.782,0,.435-.326,1.26-.978,2.477-1.478-.261-2.913-.391-4.304-.391-6.63,0-12.335,2.576-17.116,7.727-3.521,3.782-5.282,7.531-5.282,11.248,0,1.739.641,2.608,1.924,2.608,1.086,0,2.651-.94,4.695-2.82,2.042-1.88,3.868-4.059,5.477-6.537,2.217-3.434,3.728-6.998,4.532-10.694.934.566,1.402,1.609,1.402,3.13,0,2.108-1.065,4.532-3.195,7.271,1.043-.087,2.336-.391,3.88-.913l-.261.555c-2.065,4.629-3.097,7.336-3.097,8.118,0,.63.293.924.88.88.543-.043,1.51-.478,2.901-1.304Z"/>
    <path class="cls-1" d="M251.578,114.422c-.261,3.26-3.239,11.65-8.933,25.169l-.587,1.336c2.369-2.543,4.944-4.629,7.727-6.259,2.782-1.631,5.184-2.445,7.205-2.445,1.999,0,3,1.054,3,3.162,0,2.391-1.087,5.173-3.26,8.347-2.174,3.173-4.945,6.042-8.314,8.607-6.129,4.608-12.052,6.912-17.769,6.912l.457-1.043c4.064-9.433,7.591-17.953,10.58-25.561,2.988-7.607,4.483-11.867,4.483-12.78,0-.652-.391-.978-1.174-.978-.479,0-1.25.196-2.315.587l-.358-1.011c2.825-1.021,5.911-2.368,9.259-4.042ZM235.537,155.99c.587.087,1.032.131,1.337.131,4.803,0,9.096-2.424,12.878-7.271,1.521-1.956,2.788-4.042,3.798-6.26,1.011-2.217,1.516-4.01,1.516-5.379,0-1.521-.717-2.282-2.152-2.282-2.478,0-5.467,2.125-8.966,6.374-3.5,4.25-6.303,9.145-8.412,14.687Z"/>
    <path class="cls-1" d="M283.855,132.353c-1.522,2.913-3.369,7.009-5.543,12.291s-3.282,8.358-3.325,9.227c-.022.674.348,1.011,1.109,1.011.587,0,1.445-.217,2.576-.653l.424.88c-1.587.826-4.206,1.935-7.857,3.325l-.88.326c.565-3.543,1.652-7.324,3.26-11.346-2.804,3.543-5.461,6.32-7.971,8.33-2.511,2.011-4.581,3.016-6.211,3.016-1.435,0-2.152-.75-2.152-2.25,0-1.804,1.336-5.51,4.01-11.117l2.608-5.477c.804-1.696,1.228-2.913,1.272-3.652.043-.717-.326-1.076-1.108-1.076-.348,0-.957.131-1.826.391l-.261-.978.522-.163c3.043-.891,5.575-1.771,7.596-2.641,0,1.739-.967,4.597-2.901,8.574l-2.836,5.804c-2.174,4.456-3.26,7.183-3.26,8.183,0,.935.413,1.402,1.239,1.402,2.108,0,4.901-2.201,8.379-6.602,3.477-4.401,6.249-9.254,8.314-14.557l.424-1.043c1.26-.131,2.727-.532,4.401-1.207Z"/>
    <path class="cls-1" d="M299.341,132.875l-.293,1.011h-5.282l-8.868,25.038c-.848,0-1.413.098-1.695.293-.283.196-.598.717-.946,1.565-1.804,4.239-3.325,7.304-4.565,9.194-1.434,2.261-3.081,4.065-4.939,5.412s-3.602,2.021-5.232,2.021c-.891,0-1.635-.228-2.234-.685-.597-.456-.896-1.033-.896-1.728,0-.217.054-.533.163-.945,1.174.282,2.304.423,3.391.423,3.804,0,6.819-1.788,9.047-5.363,2.228-3.576,5.515-11.905,9.862-24.99l3.032-9.129.359-1.108h-3.619l.358-.913h.391l.913-.065c1.543,0,2.804-1.109,3.782-3.325,1.282-2.934,2.733-5.282,4.352-7.042,1.619-1.761,3.885-3.478,6.798-5.152,3.173-1.804,5.803-2.706,7.89-2.706,1.5,0,2.228.326,2.184.978-.022.261-.228.968-.619,2.119l-1.532,4.532h-1.043c.413-1.325.62-2.336.62-3.032,0-1.109-1.011-1.663-3.032-1.663-2.956,0-5.428,1.081-7.417,3.244-1.989,2.163-3.94,5.885-5.852,11.167l-.293.847h5.216Z"/>
    <path class="cls-1" d="M312.219,144.808c.304.609.457,1.152.457,1.63,0,2.087-1.446,4.489-4.336,7.205-4.217,3.978-7.803,5.966-10.759,5.966-2.543,0-3.815-1.445-3.815-4.336,0-3.261.994-6.684,2.983-10.27,1.989-3.587,4.537-6.542,7.645-8.868,3.782-2.825,7.151-4.238,10.107-4.238,1.717,0,2.576.631,2.576,1.891,0,.826-.413,1.821-1.239,2.982-.826,1.163-1.858,2.213-3.097,3.147-1.152.847-2.614,1.63-4.385,2.347-1.772.717-3.135,1.076-4.092,1.076-1.022,0-1.728-.565-2.119-1.696.913.131,1.641.196,2.185.196,2.173,0,4.178-.625,6.015-1.874s2.755-2.602,2.755-4.059c0-1.043-.674-1.565-2.021-1.565-2.412,0-4.88,1.478-7.401,4.434-1.783,2.087-3.25,4.522-4.401,7.304-1.152,2.782-1.728,5.26-1.728,7.433,0,2.238.934,3.358,2.804,3.358,2.043,0,4.167-1.125,6.374-3.374,2.206-2.25,4.037-5.145,5.494-8.688Z"/>
    <path class="cls-1" d="M332.955,132.223l-.359.619-1.597,2.674c-.566.956-1.163,1.913-1.793,2.869l-.359.522-.815-.554c.108-.239.184-.413.228-.522.457-.934.685-1.598.685-1.988,0-.826-.728-1.239-2.184-1.239-1.326,0-2.489.495-3.489,1.483-1,.99-1.5,2.136-1.5,3.44,0,.696.217,1.522.652,2.477l1.565,3.358c.522,1.13.782,2.369.782,3.717,0,2.63-1.445,5.119-4.336,7.466-2.5,2.021-4.716,3.032-6.651,3.032-1.108,0-2.021-.277-2.739-.831-.717-.555-1.076-1.266-1.076-2.136,0-1.021.261-2.01.782-2.967,1.348,2.304,3.021,3.456,5.021,3.456,1.586,0,2.988-.543,4.206-1.63,1.217-1.087,1.826-2.347,1.826-3.782,0-.76-.217-1.63-.652-2.608l-1.924-4.206c-.37-.826-.554-1.739-.554-2.739,0-1.804.999-3.825,3-6.064,1.347-1.478,2.69-2.515,4.026-3.113,1.337-.598,3.016-.897,5.037-.897.782,0,1.521.054,2.217.163Z"/>
    <path class="cls-1" d="M347.984,132.223l-.359.619-1.597,2.674c-.566.956-1.163,1.913-1.793,2.869l-.358.522-.815-.554c.108-.239.184-.413.228-.522.456-.934.685-1.598.685-1.988,0-.826-.729-1.239-2.185-1.239-1.326,0-2.489.495-3.488,1.483-1,.99-1.5,2.136-1.5,3.44,0,.696.217,1.522.652,2.477l1.565,3.358c.522,1.13.782,2.369.782,3.717,0,2.63-1.445,5.119-4.336,7.466-2.5,2.021-4.717,3.032-6.651,3.032-1.108,0-2.021-.277-2.739-.831-.717-.555-1.076-1.266-1.076-2.136,0-1.021.261-2.01.782-2.967,1.348,2.304,3.021,3.456,5.021,3.456,1.587,0,2.989-.543,4.206-1.63s1.826-2.347,1.826-3.782c0-.76-.218-1.63-.653-2.608l-1.923-4.206c-.37-.826-.554-1.739-.554-2.739,0-1.804.999-3.825,2.999-6.064,1.348-1.478,2.69-2.515,4.026-3.113,1.337-.598,3.016-.897,5.037-.897.782,0,1.521.054,2.217.163Z"/>
    <path class="cls-1" d="M356.754,131.375v.359c0,2.043-1.348,6.086-4.043,12.128l-2.412,5.477c-1.283,2.934-1.946,4.728-1.989,5.379-.022.674.347.989,1.109.946.435-.022,1.151-.25,2.152-.685l.423.945c-3.412,1.63-6.14,2.793-8.183,3.488.108-2.043.44-3.928.994-5.656.555-1.728,1.755-4.591,3.603-8.591,2.347-5.129,3.543-8.129,3.586-8.998.043-.673-.239-1.01-.847-1.01-.283,0-.652.076-1.109.228l-1.369.489c-.087.022-.293.098-.619.228l-.326-1.043.685-.228c2.412-.891,4.869-1.891,7.368-2.999l.978-.457ZM358.645,123.029c1,0,1.5.5,1.5,1.499,0,.566-.223,1.076-.669,1.533-.446.456-.951.685-1.516.685-1.021,0-1.532-.5-1.532-1.5,0-.565.223-1.076.669-1.532.445-.457.961-.685,1.548-.685Z"/>
    <path class="cls-1" d="M379.25,135.19c-1.152-.108-2.108-.163-2.869-.163-5.717,0-10.097,2.196-13.139,6.585-1.195,1.74-2.206,3.733-3.032,5.983-.826,2.25-1.239,4.135-1.239,5.656,0,1.065.309,1.94.929,2.625.619.685,1.407,1.027,2.363,1.027,2.26,0,4.76-1.814,7.498-5.444s4.108-6.956,4.108-9.976c0-.673-.179-1.244-.538-1.712-.358-.467-.788-.701-1.288-.701-1.739,0-3.402,1.74-4.988,5.217-.109-.435-.163-.815-.163-1.141,0-1.348.836-2.76,2.51-4.239,1.673-1.478,3.261-2.217,4.76-2.217,1,0,1.847.407,2.543,1.223.695.815,1.044,1.809,1.044,2.983,0,3.934-2.511,8.107-7.531,12.519-4.304,3.826-7.879,5.738-10.727,5.738-1.239,0-2.266-.445-3.081-1.336-.815-.891-1.223-2.011-1.223-3.358,0-2.978,1.038-6.091,3.114-9.341s4.809-6.048,8.2-8.395c1.869-1.282,3.907-2.336,6.113-3.162,2.206-.826,4.08-1.239,5.623-1.239.956,0,1.435.423,1.435,1.272,0,.326-.142.859-.424,1.597Z"/>
    <path class="cls-1" d="M399.497,154.523l.521.88c-2.608,1.87-5.695,3.174-9.259,3.912.456-3.586,2.565-9.031,6.325-16.334l2.12-4.042c.717-1.391,1.076-2.282,1.076-2.674,0-.587-.24-.88-.717-.88-.674,0-1.951.762-3.831,2.282-1.881,1.522-3.712,3.282-5.494,5.282-3.695,4.13-6.792,9.085-9.292,14.867-1.021.239-2.467.761-4.336,1.565,1.999-4.086,4.015-8.678,6.047-13.775,2.032-5.097,3.049-8.113,3.049-9.047,0-.782-.316-1.174-.946-1.174-.326,0-1.033.163-2.119.489-.087.022-.207.054-.358.098l-.196-1.043c3.043-.869,5.792-1.847,8.248-2.934l.424-.196c.043.283.065.479.065.587,0,1.935-1.424,6.054-4.271,12.356l-.456.978.554-.619c3.564-4.064,6.851-7.265,9.863-9.601,3.01-2.336,5.363-3.505,7.058-3.505,1.065,0,1.597.544,1.597,1.63,0,1.13-1.424,4.466-4.271,10.009-3.412,6.608-5.118,10.324-5.118,11.15,0,.63.293.945.88.945.652,0,1.543-.358,2.673-1.076l.163-.131Z"/>
    <path class="cls-1" d="M425.317,154.262l.587.847c-2.282,1.717-5.401,3.065-9.357,4.043.108-2.195,1.402-5.977,3.88-11.346-2.804,3.304-5.689,6.042-8.656,8.216-2.966,2.173-5.319,3.261-7.058,3.261-1.522,0-2.282-.967-2.282-2.902,0-3.281,1.467-6.83,4.401-10.644s6.619-6.949,11.052-9.406c4.999-2.804,9.976-4.205,14.932-4.205.696,0,1.044.261,1.044.782,0,.435-.326,1.26-.978,2.477-1.478-.261-2.913-.391-4.304-.391-6.63,0-12.335,2.576-17.116,7.727-3.521,3.782-5.282,7.531-5.282,11.248,0,1.739.641,2.608,1.923,2.608,1.087,0,2.652-.94,4.695-2.82s3.869-4.059,5.477-6.537c2.217-3.434,3.728-6.998,4.532-10.694.934.566,1.402,1.609,1.402,3.13,0,2.108-1.065,4.532-3.196,7.271,1.044-.087,2.336-.391,3.88-.913l-.261.555c-2.065,4.629-3.097,7.336-3.097,8.118,0,.63.293.924.88.88.543-.043,1.51-.478,2.901-1.304Z"/>
    <path class="cls-1" d="M447.683,114.422c0,2.652-1.761,7.966-5.282,15.943-6.108,13.888-9.216,21.952-9.325,24.191-.044.978.347,1.445,1.174,1.402.63-.022,1.749-.663,3.358-1.924l.391-.293.619.848c-3.499,3.064-6.064,4.597-7.694,4.597-1.304,0-1.956-.913-1.956-2.739,0-1.413.451-3.391,1.353-5.934.901-2.543,3.059-7.9,6.471-16.073l3.097-7.433c1.87-4.455,2.804-7.053,2.804-7.792,0-.587-.337-.88-1.011-.88-.24,0-.815.141-1.728.423-.109.044-.272.098-.489.163l-.326-.946.489-.196c3.76-1.434,6.444-2.554,8.053-3.358Z"/>
  </g>
  <g>
    <path class="cls-2" d="M545.41,169.617v-27.036h7.192v27.036h-7.192ZM559.645,158.574l-6.069-11.195h-2.172v-4.798h5.319l6.068,11.614h.3l.749,4.379h-4.195ZM561.817,158.574l1.124-4.379h.449l6.069-11.614h5.319v4.798h-2.173l-6.068,11.195h-4.72ZM573.58,169.617v-27.036h7.192v27.036h-7.192Z"/>
    <path class="cls-2" d="M587.252,169.617l15.359-27.036h10.863l15.358,27.036h-7.867l-12.586-23.762h-.674l-12.586,23.762h-7.867ZM594.37,163.029v-3.617h26.971v3.617h-26.971Z"/>
    <path class="cls-2" d="M635.313,169.617v-27.036h7.192v27.036h-7.192ZM649.548,158.574l-6.069-11.195h-2.172v-4.798h5.319l6.068,11.614h.3l.749,4.379h-4.195ZM651.72,158.574l1.124-4.379h.449l6.069-11.614h5.319v4.798h-2.173l-6.068,11.195h-4.72ZM663.483,169.617v-27.036h7.192v27.036h-7.192Z"/>
    <path class="cls-2" d="M677.155,169.617l15.358-27.036h10.863l15.358,27.036h-7.866l-12.586-23.762h-.675l-12.586,23.762h-7.867ZM684.272,163.029v-3.617h26.972v3.617h-26.972Z"/>
    <path class="cls-2" d="M737.155,169.617v-27.036h7.492v27.036h-7.492ZM743.749,161.239v-3.617h9.064c4.096,0,7.192-.517,9.29-1.552,2.099-1.034,3.147-2.548,3.147-4.541,0-1.751-1.049-3.078-3.147-3.979-2.098-.9-5.194-1.352-9.29-1.352h-8.915v-3.617h8.915c6.668,0,11.719.755,15.153,2.266,3.433,1.511,5.15,3.738,5.15,6.683,0,3.187-1.718,5.602-5.15,7.245-3.435,1.644-8.485,2.465-15.153,2.465h-9.064Z"/>
    <path class="cls-2" d="M777.8,169.617l15.358-27.036h10.863l15.358,27.036h-7.866l-12.586-23.762h-.675l-12.586,23.762h-7.867ZM784.917,163.029v-3.617h26.972v3.617h-26.972Z"/>
    <path class="cls-2" d="M827.06,169.617v-27.036h7.492v27.036h-7.492ZM833.653,161.239v-3.617h9.064c4.096,0,7.192-.517,9.29-1.552,2.099-1.034,3.147-2.548,3.147-4.541,0-1.751-1.049-3.078-3.147-3.979-2.098-.9-5.194-1.352-9.29-1.352h-8.915v-3.617h8.915c6.668,0,11.719.755,15.153,2.266,3.433,1.511,5.15,3.738,5.15,6.683,0,3.187-1.718,5.602-5.15,7.245-3.435,1.644-8.485,2.465-15.153,2.465h-9.064Z"/>
    <path class="cls-2" d="M867.704,169.617l15.358-27.036h10.863l15.358,27.036h-7.866l-12.586-23.762h-.675l-12.586,23.762h-7.867ZM874.821,163.029v-3.617h26.972v3.617h-26.972Z"/>
    <path class="cls-2" d="M951.266,169.998c-16.532,0-24.798-4.646-24.798-13.938,0-4.404,2.085-7.815,6.256-10.233,4.17-2.418,10.052-3.627,17.644-3.627,3.671,0,6.867.295,9.59.885,2.722.591,4.707,1.432,5.956,2.523l-5.544,2.799c-1.124-.863-2.554-1.529-4.289-1.999-1.736-.47-3.615-.705-5.638-.705-4.82,0-8.686.883-11.595,2.646-2.909,1.765-4.363,4.271-4.363,7.521,0,7.083,6.018,10.625,18.056,10.625,3.62,0,7.192-.381,10.713-1.143l1.724,3.351c-4.346.863-8.916,1.295-13.711,1.295Z"/>
    <path class="cls-2" d="M973.442,169.617v-27.036h7.492v27.036h-7.492ZM975.016,157.965v-3.617h31.504v3.617h-31.504ZM1000.414,169.617v-27.036h7.491v27.036h-7.491Z"/>
    <path class="cls-2" d="M1035.626,169.998c-13.086,0-19.629-4.569-19.629-13.709,0-9.393,6.543-14.089,19.629-14.089s19.629,4.696,19.629,14.089c0,9.14-6.543,13.709-19.629,13.709ZM1035.626,166.495c7.842,0,11.763-3.402,11.763-10.206,0-7.057-3.921-10.586-11.763-10.586s-11.762,3.529-11.762,10.586c0,6.804,3.92,10.206,11.762,10.206Z"/>
    <path class="cls-2" d="M1061.1,146.198v-3.617h38.958v3.617h-38.958ZM1076.832,169.617v-27.036h7.492v27.036h-7.492Z"/>
    <path class="cls-2" d="M1106.052,146.198v-3.617h38.958v3.617h-38.958ZM1121.784,169.617v-27.036h7.492v27.036h-7.492Z"/>
    <path class="cls-2" d="M1170.482,169.998c-13.086,0-19.629-4.569-19.629-13.709,0-9.393,6.543-14.089,19.629-14.089s19.629,4.696,19.629,14.089c0,9.14-6.543,13.709-19.629,13.709ZM1170.482,166.495c7.842,0,11.763-3.402,11.763-10.206,0-7.057-3.921-10.586-11.763-10.586s-11.762,3.529-11.762,10.586c0,6.804,3.92,10.206,11.762,10.206Z"/>
    <path class="cls-2" d="M1229.248,149.669l-13.81,10.292,14.193,10.955h-7.289l-6.291-4.951c-1.534-1.286-2.915-2.456-4.449-3.82h-.153c-1.305,1.325-2.839,2.495-4.45,3.82l-6.138,4.951h-7.059l14.347-10.838-13.656-10.409h7.136l6.061,4.717c1.534,1.209,2.839,2.301,4.22,3.548h.23c1.304-1.247,2.762-2.417,4.22-3.548l5.907-4.717h6.981Z"/>
    <path class="cls-2" d="M1236.397,169.617v-4.265c8.216-2.311,14.353-4.722,18.411-7.235,4.058-2.514,6.087-5.103,6.087-7.769,0-1.548-.749-2.709-2.247-3.483-1.499-.774-3.771-1.162-6.818-1.162-2.022,0-4.133.299-6.33.896-2.198.597-4.083,1.39-5.656,2.38l-5.17-2.608c1.724-1.257,4.17-2.266,7.342-3.027s6.493-1.143,9.965-1.143c5.619,0,9.82.676,12.605,2.027,2.784,1.353,4.177,3.393,4.177,6.121,0,2.742-1.705,5.373-5.113,7.893-3.409,2.52-8.598,4.94-15.564,7.264v4.112h-11.688ZM1238.645,169.617v-3.541h32.365v3.541h-32.365Z"/>
  </g>
</svg>